<mxfile host="app.diagrams.net" modified="2023-05-18T13:08:14.087Z" agent="Mozilla/5.0 (X11; Linux x86_64) AppleWebKit/537.36 (KHTML, like Gecko) Chrome/111.0.0.0 Safari/537.36" version="21.3.2" etag="K6bxCiST0qf-7TiMo85b" type="github">
  <diagram name="Page-1" id="rg67T05o768n9HzKnAx3">
    <mxGraphModel>
      <root>
        <mxCell id="0" />
        <mxCell id="1" parent="0" />
      </root>
    </mxGraphModel>
  </diagram>
</mxfile>
